<svg id="visual" viewBox="0 0 960 300" width="960" height="300" xmlns="http://www.w3.org/2000/svg" xmlns:xlink="http://www.w3.org/1999/xlink" version="1.1"><rect x="0" y="0" width="960" height="300" fill="#fff"></rect><path d="M0 103L26.7 106.2C53.3 109.3 106.7 115.7 160 112.5C213.3 109.3 266.7 96.7 320 93.5C373.3 90.3 426.7 96.7 480 97C533.3 97.3 586.7 91.7 640 87.8C693.3 84 746.7 82 800 84.7C853.3 87.3 906.7 94.7 933.3 98.3L960 102L960 0L933.3 0C906.7 0 853.3 0 800 0C746.7 0 693.3 0 640 0C586.7 0 533.3 0 480 0C426.7 0 373.3 0 320 0C266.7 0 213.3 0 160 0C106.7 0 53.3 0 26.7 0L0 0Z" fill="#04e762"></path><path d="M0 64L26.7 67.8C53.3 71.7 106.7 79.3 160 80.3C213.3 81.3 266.7 75.7 320 77.5C373.3 79.3 426.7 88.7 480 89C533.3 89.3 586.7 80.7 640 76C693.3 71.3 746.7 70.7 800 72.3C853.3 74 906.7 78 933.3 80L960 82L960 0L933.3 0C906.7 0 853.3 0 800 0C746.7 0 693.3 0 640 0C586.7 0 533.3 0 480 0C426.7 0 373.3 0 320 0C266.7 0 213.3 0 160 0C106.7 0 53.3 0 26.7 0L0 0Z" fill="#00deb5"></path><path d="M0 44L26.7 47.5C53.3 51 106.7 58 160 58.2C213.3 58.3 266.7 51.7 320 51.2C373.3 50.7 426.7 56.3 480 58.5C533.3 60.7 586.7 59.3 640 57.2C693.3 55 746.7 52 800 55.2C853.3 58.3 906.7 67.7 933.3 72.3L960 77L960 0L933.3 0C906.7 0 853.3 0 800 0C746.7 0 693.3 0 640 0C586.7 0 533.3 0 480 0C426.7 0 373.3 0 320 0C266.7 0 213.3 0 160 0C106.7 0 53.3 0 26.7 0L0 0Z" fill="#00cdd9"></path><path d="M0 51L26.7 51.8C53.3 52.7 106.7 54.3 160 53.7C213.3 53 266.7 50 320 46.8C373.3 43.7 426.7 40.3 480 40.7C533.3 41 586.7 45 640 43.8C693.3 42.7 746.7 36.3 800 36.7C853.3 37 906.7 44 933.3 47.5L960 51L960 0L933.3 0C906.7 0 853.3 0 800 0C746.7 0 693.3 0 640 0C586.7 0 533.3 0 480 0C426.7 0 373.3 0 320 0C266.7 0 213.3 0 160 0C106.7 0 53.3 0 26.7 0L0 0Z" fill="#00b8e3"></path><path d="M0 28L26.7 27.3C53.3 26.7 106.7 25.3 160 24.7C213.3 24 266.7 24 320 23C373.3 22 426.7 20 480 20.5C533.3 21 586.7 24 640 23.8C693.3 23.7 746.7 20.3 800 18.2C853.3 16 906.7 15 933.3 14.5L960 14L960 0L933.3 0C906.7 0 853.3 0 800 0C746.7 0 693.3 0 640 0C586.7 0 533.3 0 480 0C426.7 0 373.3 0 320 0C266.7 0 213.3 0 160 0C106.7 0 53.3 0 26.7 0L0 0Z" fill="#00a1e4"></path></svg>