<svg id="visual" viewBox="0 0 900 300" width="900" height="300" xmlns="http://www.w3.org/2000/svg" xmlns:xlink="http://www.w3.org/1999/xlink" version="1.1"><rect x="0" y="0" width="900" height="300" fill="#001122"></rect><path d="M0 44L11.5 42.5C23 41 46 38 69 38.8C92 39.7 115 44.3 138.2 51.5C161.3 58.7 184.7 68.3 207.8 72.7C231 77 254 76 277 76.5C300 77 323 79 346 72.8C369 66.7 392 52.3 415.2 53.5C438.3 54.7 461.7 71.3 484.8 79.2C508 87 531 86 554 81.7C577 77.3 600 69.7 623 69.2C646 68.7 669 75.3 692.2 73.3C715.3 71.3 738.7 60.7 761.8 57.2C785 53.7 808 57.3 831 66C854 74.7 877 88.3 888.5 95.2L900 102L900 0L888.5 0C877 0 854 0 831 0C808 0 785 0 761.8 0C738.7 0 715.3 0 692.2 0C669 0 646 0 623 0C600 0 577 0 554 0C531 0 508 0 484.8 0C461.7 0 438.3 0 415.2 0C392 0 369 0 346 0C323 0 300 0 277 0C254 0 231 0 207.8 0C184.7 0 161.3 0 138.2 0C115 0 92 0 69 0C46 0 23 0 11.5 0L0 0Z" fill="#cccccc"></path><path d="M0 57L11.5 60.5C23 64 46 71 69 69.2C92 67.3 115 56.7 138.2 58C161.3 59.3 184.7 72.7 207.8 75.5C231 78.3 254 70.7 277 66C300 61.3 323 59.7 346 55.5C369 51.3 392 44.7 415.2 47.5C438.3 50.3 461.7 62.7 484.8 63.2C508 63.7 531 52.3 554 50.7C577 49 600 57 623 62.8C646 68.7 669 72.3 692.2 69C715.3 65.7 738.7 55.3 761.8 56.2C785 57 808 69 831 73.8C854 78.7 877 76.3 888.5 75.2L900 74L900 0L888.5 0C877 0 854 0 831 0C808 0 785 0 761.8 0C738.7 0 715.3 0 692.2 0C669 0 646 0 623 0C600 0 577 0 554 0C531 0 508 0 484.8 0C461.7 0 438.3 0 415.2 0C392 0 369 0 346 0C323 0 300 0 277 0C254 0 231 0 207.8 0C184.7 0 161.3 0 138.2 0C115 0 92 0 69 0C46 0 23 0 11.5 0L0 0Z" fill="#d6d6d6"></path><path d="M0 29L11.5 30.3C23 31.7 46 34.3 69 36.5C92 38.7 115 40.3 138.2 41.8C161.3 43.3 184.7 44.7 207.8 43.5C231 42.3 254 38.7 277 43.2C300 47.7 323 60.3 346 60.8C369 61.3 392 49.7 415.2 44C438.3 38.3 461.7 38.7 484.8 42.2C508 45.7 531 52.3 554 55.7C577 59 600 59 623 53.2C646 47.3 669 35.7 692.2 31.7C715.3 27.7 738.7 31.3 761.8 33C785 34.7 808 34.3 831 39.5C854 44.7 877 55.3 888.5 60.7L900 66L900 0L888.5 0C877 0 854 0 831 0C808 0 785 0 761.8 0C738.7 0 715.3 0 692.2 0C669 0 646 0 623 0C600 0 577 0 554 0C531 0 508 0 484.8 0C461.7 0 438.3 0 415.2 0C392 0 369 0 346 0C323 0 300 0 277 0C254 0 231 0 207.8 0C184.7 0 161.3 0 138.2 0C115 0 92 0 69 0C46 0 23 0 11.5 0L0 0Z" fill="#e0e0e0"></path><path d="M0 33L11.5 30.7C23 28.3 46 23.7 69 21.2C92 18.7 115 18.3 138.2 18.3C161.3 18.3 184.7 18.7 207.8 25C231 31.3 254 43.7 277 46.2C300 48.7 323 41.3 346 40.5C369 39.7 392 45.3 415.2 47.3C438.3 49.3 461.7 47.7 484.8 44.2C508 40.7 531 35.3 554 35.2C577 35 600 40 623 39.2C646 38.3 669 31.7 692.2 28.8C715.3 26 738.7 27 761.8 31C785 35 808 42 831 44.3C854 46.7 877 44.3 888.5 43.2L900 42L900 0L888.5 0C877 0 854 0 831 0C808 0 785 0 761.8 0C738.7 0 715.3 0 692.2 0C669 0 646 0 623 0C600 0 577 0 554 0C531 0 508 0 484.8 0C461.7 0 438.3 0 415.2 0C392 0 369 0 346 0C323 0 300 0 277 0C254 0 231 0 207.8 0C184.7 0 161.3 0 138.2 0C115 0 92 0 69 0C46 0 23 0 11.5 0L0 0Z" fill="#eaeaea"></path><path d="M0 20L11.5 23.7C23 27.3 46 34.7 69 36.5C92 38.3 115 34.7 138.2 34.5C161.3 34.3 184.7 37.7 207.8 35.8C231 34 254 27 277 23C300 19 323 18 346 16.7C369 15.3 392 13.7 415.2 14.7C438.3 15.7 461.7 19.3 484.8 21C508 22.7 531 22.3 554 22.5C577 22.7 600 23.3 623 22.7C646 22 669 20 692.2 18.7C715.3 17.3 738.7 16.7 761.8 17.2C785 17.7 808 19.3 831 18.7C854 18 877 15 888.5 13.5L900 12L900 0L888.5 0C877 0 854 0 831 0C808 0 785 0 761.8 0C738.7 0 715.3 0 692.2 0C669 0 646 0 623 0C600 0 577 0 554 0C531 0 508 0 484.8 0C461.7 0 438.3 0 415.2 0C392 0 369 0 346 0C323 0 300 0 277 0C254 0 231 0 207.8 0C184.7 0 161.3 0 138.2 0C115 0 92 0 69 0C46 0 23 0 11.5 0L0 0Z" fill="#f5f5f5"></path><path d="M0 15L11.5 16.8C23 18.7 46 22.3 69 20.7C92 19 115 12 138.2 11.3C161.3 10.7 184.7 16.3 207.8 18.3C231 20.3 254 18.7 277 19.5C300 20.3 323 23.7 346 24.7C369 25.7 392 24.3 415.2 21C438.3 17.7 461.7 12.3 484.8 12.7C508 13 531 19 554 18.8C577 18.7 600 12.3 623 12.7C646 13 669 20 692.2 19.8C715.3 19.7 738.7 12.3 761.8 10.5C785 8.7 808 12.3 831 14.7C854 17 877 18 888.5 18.5L900 19L900 0L888.5 0C877 0 854 0 831 0C808 0 785 0 761.8 0C738.7 0 715.3 0 692.2 0C669 0 646 0 623 0C600 0 577 0 554 0C531 0 508 0 484.8 0C461.7 0 438.3 0 415.2 0C392 0 369 0 346 0C323 0 300 0 277 0C254 0 231 0 207.8 0C184.7 0 161.3 0 138.2 0C115 0 92 0 69 0C46 0 23 0 11.5 0L0 0Z" fill="#ffffff"></path></svg>