<svg id="visual" viewBox="0 0 960 300" width="960" height="300" xmlns="http://www.w3.org/2000/svg" xmlns:xlink="http://www.w3.org/1999/xlink" version="1.1"><path d="M0 194L26.7 194.5C53.3 195 106.7 196 160 197.2C213.3 198.3 266.7 199.7 320 196.8C373.3 194 426.7 187 480 186.5C533.3 186 586.7 192 640 197.2C693.3 202.3 746.7 206.7 800 207.5C853.3 208.3 906.7 205.7 933.3 204.3L960 203L960 301L933.3 301C906.7 301 853.3 301 800 301C746.7 301 693.3 301 640 301C586.7 301 533.3 301 480 301C426.7 301 373.3 301 320 301C266.7 301 213.3 301 160 301C106.7 301 53.3 301 26.7 301L0 301Z" fill="#04e762"></path><path d="M0 196L26.7 201.7C53.3 207.3 106.7 218.7 160 221C213.3 223.3 266.7 216.7 320 213.5C373.3 210.3 426.7 210.7 480 208.7C533.3 206.7 586.7 202.3 640 201.8C693.3 201.3 746.7 204.7 800 208.5C853.3 212.3 906.7 216.7 933.3 218.8L960 221L960 301L933.3 301C906.7 301 853.3 301 800 301C746.7 301 693.3 301 640 301C586.7 301 533.3 301 480 301C426.7 301 373.3 301 320 301C266.7 301 213.3 301 160 301C106.7 301 53.3 301 26.7 301L0 301Z" fill="#00deb5"></path><path d="M0 231L26.7 233.2C53.3 235.3 106.7 239.7 160 243.5C213.3 247.3 266.7 250.7 320 250C373.3 249.3 426.7 244.7 480 240.3C533.3 236 586.7 232 640 228.8C693.3 225.7 746.7 223.3 800 222.5C853.3 221.7 906.7 222.3 933.3 222.7L960 223L960 301L933.3 301C906.7 301 853.3 301 800 301C746.7 301 693.3 301 640 301C586.7 301 533.3 301 480 301C426.7 301 373.3 301 320 301C266.7 301 213.3 301 160 301C106.7 301 53.3 301 26.7 301L0 301Z" fill="#00cdd9"></path><path d="M0 262L26.7 262.5C53.3 263 106.7 264 160 264.7C213.3 265.3 266.7 265.7 320 265C373.3 264.3 426.7 262.7 480 260.5C533.3 258.3 586.7 255.7 640 256.3C693.3 257 746.7 261 800 264C853.3 267 906.7 269 933.3 270L960 271L960 301L933.3 301C906.7 301 853.3 301 800 301C746.7 301 693.3 301 640 301C586.7 301 533.3 301 480 301C426.7 301 373.3 301 320 301C266.7 301 213.3 301 160 301C106.7 301 53.3 301 26.7 301L0 301Z" fill="#00b8e3"></path><path d="M0 271L26.7 271.2C53.3 271.3 106.7 271.7 160 274C213.3 276.3 266.7 280.7 320 279.5C373.3 278.3 426.7 271.7 480 269.3C533.3 267 586.7 269 640 269.7C693.3 270.3 746.7 269.7 800 270.8C853.3 272 906.7 275 933.3 276.5L960 278L960 301L933.3 301C906.7 301 853.3 301 800 301C746.7 301 693.3 301 640 301C586.7 301 533.3 301 480 301C426.7 301 373.3 301 320 301C266.7 301 213.3 301 160 301C106.7 301 53.3 301 26.7 301L0 301Z" fill="#00a1e4"></path></svg>