<svg id="visual" viewBox="0 0 900 300" width="900" height="300" xmlns="http://www.w3.org/2000/svg" xmlns:xlink="http://www.w3.org/1999/xlink" version="1.1"><path d="M0 76L13.7 73.5C27.3 71 54.7 66 82 73C109.3 80 136.7 99 163.8 113C191 127 218 136 245.2 132C272.3 128 299.7 111 327 108C354.3 105 381.7 116 409 110C436.3 104 463.7 81 491 73.5C518.3 66 545.7 74 573 83.5C600.3 93 627.7 104 654.8 107.5C682 111 709 107 736.2 101.5C763.3 96 790.7 89 818 86.5C845.3 84 872.7 86 886.3 87L900 88L900 0L886.3 0C872.7 0 845.3 0 818 0C790.7 0 763.3 0 736.2 0C709 0 682 0 654.8 0C627.7 0 600.3 0 573 0C545.7 0 518.3 0 491 0C463.7 0 436.3 0 409 0C381.7 0 354.3 0 327 0C299.7 0 272.3 0 245.2 0C218 0 191 0 163.8 0C136.7 0 109.3 0 82 0C54.7 0 27.3 0 13.7 0L0 0Z" fill="#ffffff"></path><path d="M0 139L13.7 132.5C27.3 126 54.7 113 82 116.5C109.3 120 136.7 140 163.8 155.5C191 171 218 182 245.2 180C272.3 178 299.7 163 327 157.5C354.3 152 381.7 156 409 152C436.3 148 463.7 136 491 136C518.3 136 545.7 148 573 157C600.3 166 627.7 172 654.8 175C682 178 709 178 736.2 175.5C763.3 173 790.7 168 818 157C845.3 146 872.7 129 886.3 120.5L900 112L900 86L886.3 85C872.7 84 845.3 82 818 84.5C790.7 87 763.3 94 736.2 99.5C709 105 682 109 654.8 105.5C627.7 102 600.3 91 573 81.5C545.7 72 518.3 64 491 71.5C463.7 79 436.3 102 409 108C381.7 114 354.3 103 327 106C299.7 109 272.3 126 245.2 130C218 134 191 125 163.8 111C136.7 97 109.3 78 82 71C54.7 64 27.3 69 13.7 71.5L0 74Z" fill="#ffffff"></path><path d="M0 175L13.7 166C27.3 157 54.7 139 82 141C109.3 143 136.7 165 163.8 181.5C191 198 218 209 245.2 211.5C272.3 214 299.7 208 327 202.5C354.3 197 381.7 192 409 184C436.3 176 463.7 165 491 166C518.3 167 545.7 180 573 189.5C600.3 199 627.7 205 654.8 207.5C682 210 709 209 736.2 207C763.3 205 790.7 202 818 194.5C845.3 187 872.7 175 886.3 169L900 163L900 110L886.3 118.5C872.7 127 845.3 144 818 155C790.7 166 763.3 171 736.2 173.5C709 176 682 176 654.8 173C627.7 170 600.3 164 573 155C545.7 146 518.3 134 491 134C463.7 134 436.3 146 409 150C381.7 154 354.3 150 327 155.5C299.7 161 272.3 176 245.2 178C218 180 191 169 163.8 153.5C136.7 138 109.3 118 82 114.5C54.7 111 27.3 124 13.7 130.5L0 137Z" fill="#ffffff"></path><path d="M0 193L13.7 189C27.3 185 54.7 177 82 182C109.3 187 136.7 205 163.8 217C191 229 218 235 245.2 238.5C272.3 242 299.7 243 327 238.5C354.3 234 381.7 224 409 212.5C436.3 201 463.7 188 491 191.5C518.3 195 545.7 215 573 227C600.3 239 627.7 243 654.8 243C682 243 709 239 736.2 235.5C763.3 232 790.7 229 818 225.5C845.3 222 872.7 218 886.3 216L900 214L900 161L886.3 167C872.7 173 845.3 185 818 192.5C790.7 200 763.3 203 736.2 205C709 207 682 208 654.8 205.5C627.7 203 600.3 197 573 187.5C545.7 178 518.3 165 491 164C463.7 163 436.3 174 409 182C381.7 190 354.3 195 327 200.5C299.7 206 272.3 212 245.2 209.5C218 207 191 196 163.8 179.5C136.7 163 109.3 141 82 139C54.7 137 27.3 155 13.7 164L0 173Z" fill="#f6f6f6"></path><path d="M0 301L13.7 301C27.3 301 54.7 301 82 301C109.3 301 136.7 301 163.8 301C191 301 218 301 245.2 301C272.3 301 299.7 301 327 301C354.3 301 381.7 301 409 301C436.3 301 463.7 301 491 301C518.3 301 545.7 301 573 301C600.3 301 627.7 301 654.8 301C682 301 709 301 736.2 301C763.3 301 790.7 301 818 301C845.3 301 872.7 301 886.3 301L900 301L900 212L886.3 214C872.7 216 845.3 220 818 223.5C790.7 227 763.3 230 736.2 233.5C709 237 682 241 654.8 241C627.7 241 600.3 237 573 225C545.7 213 518.3 193 491 189.5C463.7 186 436.3 199 409 210.5C381.7 222 354.3 232 327 236.5C299.7 241 272.3 240 245.2 236.5C218 233 191 227 163.8 215C136.7 203 109.3 185 82 180C54.7 175 27.3 183 13.7 187L0 191Z" fill="#eeeeee"></path></svg>